<?xml version="1.0" encoding="UTF-8"?>
<svg xmlns="http://www.w3.org/2000/svg" viewBox="0 0 256 256" role="img" aria-label="Octaryn Engine Control">
  <defs>
    <linearGradient id="sky" x1="30" y1="18" x2="226" y2="238" gradientUnits="userSpaceOnUse">
      <stop offset="0" stop-color="#32e6ff"/>
      <stop offset="0.48" stop-color="#1d6dff"/>
      <stop offset="1" stop-color="#11172f"/>
    </linearGradient>
    <linearGradient id="core" x1="83" y1="58" x2="178" y2="198" gradientUnits="userSpaceOnUse">
      <stop offset="0" stop-color="#f5fff9"/>
      <stop offset="0.42" stop-color="#8cffd8"/>
      <stop offset="1" stop-color="#23a98f"/>
    </linearGradient>
    <linearGradient id="metal" x1="53" y1="52" x2="204" y2="211" gradientUnits="userSpaceOnUse">
      <stop offset="0" stop-color="#f7fbff"/>
      <stop offset="0.38" stop-color="#a9b8c9"/>
      <stop offset="1" stop-color="#273445"/>
    </linearGradient>
    <filter id="shadow" x="-20%" y="-20%" width="140%" height="140%">
      <feDropShadow dx="0" dy="9" stdDeviation="9" flood-color="#07101c" flood-opacity="0.42"/>
    </filter>
  </defs>
  <rect width="256" height="256" rx="48" fill="#0b1020"/>
  <path d="M37 22h182c9 0 16 7 16 16v180c0 9-7 16-16 16H37c-9 0-16-7-16-16V38c0-9 7-16 16-16Z" fill="url(#sky)"/>
  <path d="M34 214 93 91l35 58 33-74 61 139Z" fill="#0c1730" opacity="0.34"/>
  <g filter="url(#shadow)">
    <path d="M128 37 204 81v88l-76 44-76-44V81Z" fill="#111a2c" stroke="#dce8f5" stroke-width="8" stroke-linejoin="round"/>
    <path d="M128 55 186 89v67l-58 34-58-34V89Z" fill="url(#metal)" stroke="#233247" stroke-width="5" stroke-linejoin="round"/>
    <path d="M128 76 168 99v58l-40 23-40-23V99Z" fill="#0b1020" stroke="#5e7188" stroke-width="5" stroke-linejoin="round"/>
    <path d="M128 93 151 106v38l-23 13-23-13v-38Z" fill="url(#core)"/>
    <path d="M128 37v39M204 81l-36 18M52 81l36 18M52 169l36-24M204 169l-36-24M128 213v-56" fill="none" stroke="#f2f8ff" stroke-width="7" stroke-linecap="round" opacity="0.9"/>
    <circle cx="128" cy="128" r="12" fill="#eafff8"/>
  </g>
  <path d="M57 51h44M45 63h29M168 203h45M190 191h21" stroke="#ffffff" stroke-width="6" stroke-linecap="round" opacity="0.58"/>
</svg>
