{"asset":{"version":"2.0","generator":"Blockbench 5.1.4 glTF exporter"},"scenes":[{"nodes":[8],"name":"blockbench_export"}],"scene":0,"nodes":[{"translation":[0,0.75,0],"name":"head"},{"translation":[0.375,0.625,0],"name":"left_arm"},{"translation":[-0.375,0.625,0],"name":"right_arm"},{"name":"torso","children":[0,1,2]},{"translation":[0.125,0,0],"name":"left_leg"},{"translation":[-0.125,0,0],"name":"right_leg"},{"translation":[0,0.75,0],"name":"body","children":[3,4,5]},{"name":"root","children":[6]},{"name":"root","mesh":0,"children":[7],"skin":0}],"bufferViews":[{"buffer":0,"byteOffset":0,"byteLength":1728,"target":34962,"byteStride":12},{"buffer":0,"byteOffset":1728,"byteLength":1728,"target":34962,"byteStride":12},{"buffer":0,"byteOffset":3456,"byteLength":1152,"target":34962,"byteStride":8},{"buffer":0,"byteOffset":4608,"byteLength":1152,"target":34962,"byteStride":8},{"buffer":0,"byteOffset":5760,"byteLength":2304,"target":34962,"byteStride":16},{"buffer":0,"byteOffset":8064,"byteLength":72,"target":34963},{"buffer":0,"byteOffset":8136,"byteLength":216,"target":34963},{"buffer":0,"byteOffset":8352,"byteLength":144,"target":34963},{"buffer":0,"byteOffset":8496,"byteLength":512},{"buffer":0,"byteOffset":9008,"byteLength":176},{"buffer":0,"byteOffset":9184,"byteLength":704},{"buffer":0,"byteOffset":9888,"byteLength":180},{"buffer":0,"byteOffset":10068,"byteLength":720},{"buffer":0,"byteOffset":10788,"byteLength":176},{"buffer":0,"byteOffset":10964,"byteLength":704},{"buffer":0,"byteOffset":11668,"byteLength":176},{"buffer":0,"byteOffset":11844,"byteLength":704},{"buffer":0,"byteOffset":12548,"byteLength":72},{"buffer":0,"byteOffset":12620,"byteLength":216},{"buffer":0,"byteOffset":12836,"byteLength":64},{"buffer":0,"byteOffset":12900,"byteLength":256},{"buffer":0,"byteOffset":13156,"byteLength":64},{"buffer":0,"byteOffset":13220,"byteLength":256},{"buffer":0,"byteOffset":13476,"byteLength":72},{"buffer":0,"byteOffset":13548,"byteLength":288},{"buffer":0,"byteOffset":13836,"byteLength":72},{"buffer":0,"byteOffset":13908,"byteLength":288},{"buffer":0,"byteOffset":14196,"byteLength":64},{"buffer":0,"byteOffset":14260,"byteLength":256},{"buffer":0,"byteOffset":14516,"byteLength":64},{"buffer":0,"byteOffset":14580,"byteLength":256},{"buffer":0,"byteOffset":14836,"byteLength":44},{"buffer":0,"byteOffset":14880,"byteLength":132},{"buffer":0,"byteOffset":15012,"byteLength":52},{"buffer":0,"byteOffset":15064,"byteLength":208},{"buffer":0,"byteOffset":15272,"byteLength":52},{"buffer":0,"byteOffset":15324,"byteLength":208},{"buffer":0,"byteOffset":15532,"byteLength":44},{"buffer":0,"byteOffset":15576,"byteLength":176},{"buffer":0,"byteOffset":15752,"byteLength":44},{"buffer":0,"byteOffset":15796,"byteLength":176},{"buffer":0,"byteOffset":15972,"byteLength":52},{"buffer":0,"byteOffset":16024,"byteLength":208},{"buffer":0,"byteOffset":16232,"byteLength":52},{"buffer":0,"byteOffset":16284,"byteLength":208},{"buffer":0,"byteOffset":16492,"byteLength":20},{"buffer":0,"byteOffset":16512,"byteLength":60},{"buffer":0,"byteOffset":16572,"byteLength":88},{"buffer":0,"byteOffset":16660,"byteLength":352},{"buffer":0,"byteOffset":17012,"byteLength":88},{"buffer":0,"byteOffset":17100,"byteLength":352},{"buffer":0,"byteOffset":17452,"byteLength":88},{"buffer":0,"byteOffset":17540,"byteLength":352},{"buffer":0,"byteOffset":17892,"byteLength":88},{"buffer":0,"byteOffset":17980,"byteLength":352},{"buffer":0,"byteOffset":18332,"byteLength":88},{"buffer":0,"byteOffset":18420,"byteLength":352},{"buffer":0,"byteOffset":18772,"byteLength":88},{"buffer":0,"byteOffset":18860,"byteLength":352},{"buffer":0,"byteOffset":19212,"byteLength":52},{"buffer":0,"byteOffset":19264,"byteLength":156},{"buffer":0,"byteOffset":19420,"byteLength":52},{"buffer":0,"byteOffset":19472,"byteLength":208},{"buffer":0,"byteOffset":19680,"byteLength":56},{"buffer":0,"byteOffset":19736,"byteLength":224},{"buffer":0,"byteOffset":19960,"byteLength":52},{"buffer":0,"byteOffset":20012,"byteLength":208},{"buffer":0,"byteOffset":20220,"byteLength":52},{"buffer":0,"byteOffset":20272,"byteLength":208},{"buffer":0,"byteOffset":20480,"byteLength":52},{"buffer":0,"byteOffset":20532,"byteLength":208},{"buffer":0,"byteOffset":20740,"byteLength":52},{"buffer":0,"byteOffset":20792,"byteLength":208},{"buffer":0,"byteOffset":21000,"byteLength":120},{"buffer":0,"byteOffset":21120,"byteLength":360},{"buffer":0,"byteOffset":21480,"byteLength":120},{"buffer":0,"byteOffset":21600,"byteLength":480},{"buffer":0,"byteOffset":22080,"byteLength":120},{"buffer":0,"byteOffset":22200,"byteLength":480},{"buffer":0,"byteOffset":22680,"byteLength":112},{"buffer":0,"byteOffset":22792,"byteLength":448},{"buffer":0,"byteOffset":23240,"byteLength":112},{"buffer":0,"byteOffset":23352,"byteLength":448},{"buffer":0,"byteOffset":23800,"byteLength":120},{"buffer":0,"byteOffset":23920,"byteLength":480},{"buffer":0,"byteOffset":24400,"byteLength":120},{"buffer":0,"byteOffset":24520,"byteLength":480},{"buffer":0,"byteOffset":25000,"byteLength":44},{"buffer":0,"byteOffset":25044,"byteLength":132},{"buffer":0,"byteOffset":25176,"byteLength":44},{"buffer":0,"byteOffset":25220,"byteLength":176},{"buffer":0,"byteOffset":25396,"byteLength":44},{"buffer":0,"byteOffset":25440,"byteLength":176},{"buffer":0,"byteOffset":25616,"byteLength":44},{"buffer":0,"byteOffset":25660,"byteLength":176},{"buffer":0,"byteOffset":25836,"byteLength":44},{"buffer":0,"byteOffset":25880,"byteLength":176},{"buffer":0,"byteOffset":26056,"byteLength":44},{"buffer":0,"byteOffset":26100,"byteLength":176},{"buffer":0,"byteOffset":26276,"byteLength":44},{"buffer":0,"byteOffset":26320,"byteLength":176},{"buffer":0,"byteOffset":26496,"byteLength":120},{"buffer":0,"byteOffset":26616,"byteLength":480},{"buffer":0,"byteOffset":27096,"byteLength":120},{"buffer":0,"byteOffset":27216,"byteLength":480},{"buffer":0,"byteOffset":27696,"byteLength":112},{"buffer":0,"byteOffset":27808,"byteLength":448},{"buffer":0,"byteOffset":28256,"byteLength":8},{"buffer":0,"byteOffset":28264,"byteLength":32}],"buffers":[{"byteLength":28296,"uri":"data:application/octet-stream;base64,"}],"accessors":[{"bufferView":0,"componentType":5126,"count":144,"max":[0.5,2,0.25],"min":[-0.5,0,-0.25],"type":"VEC3"},{"bufferView":1,"componentType":5126,"count":144,"max":[1,1,1],"min":[-1,-1,-1],"type":"VEC3"},{"bufferView":2,"componentType":5126,"count":144,"max":[0.499755859375,0.249755859375],"min":[0.000244140625,0.000244140625],"type":"VEC2"},{"bufferView":3,"componentType":5123,"count":144,"max":[0,7,0,0],"min":[0,2,0,0],"type":"VEC4"},{"bufferView":4,"componentType":5126,"count":144,"max":[0,1,0,0],"min":[0,1,0,0],"type":"VEC4"},{"bufferView":5,"componentType":5123,"count":36,"max":[23],"min":[0],"type":"SCALAR"},{"bufferView":6,"componentType":5123,"count":108,"max":[95],"min":[24],"type":"SCALAR"},{"bufferView":7,"componentType":5123,"count":72,"max":[143],"min":[96],"type":"SCALAR"},{"bufferView":8,"componentType":5126,"count":8,"max":[1,0,0,0,0,1,0,0,0,0,1,0,0.375,0,0,1],"min":[1,0,0,0,0,1,0,0,0,0,1,0,-0.375,-1.5,0,1],"type":"MAT4"},{"bufferView":9,"componentType":5126,"count":44,"max":[2.4000000953674316],"min":[0],"type":"SCALAR"},{"bufferView":10,"componentType":5126,"count":44,"max":[0.00011362819350324571,0.00002321927240700461,0.0044510564766824245,1],"min":[-0.01058554369956255,-0.00004569163138512522,-0.004457948263734579,0.9999356269836426],"type":"VEC4"},{"bufferView":11,"componentType":5126,"count":45,"max":[2.4000000953674316],"min":[0],"type":"SCALAR"},{"bufferView":12,"componentType":5126,"count":45,"max":[0.009048191830515862,0.017515188083052635,0.00727418577298522,1],"min":[-0.013277151621878147,-0.013611936941742897,-0.005301233846694231,0.9997319579124451],"type":"VEC4"},{"bufferView":13,"componentType":5126,"count":44,"max":[2.4000000953674316],"min":[0],"type":"SCALAR"},{"bufferView":14,"componentType":5126,"count":44,"max":[0.010466699488461018,0.00032627786276862025,0.031157810240983963,0.9995144605636597],"min":[-0.00872229877859354,-0.0002718997420743108,0.031156102195382118,0.9994596838951111],"type":"VEC4"},{"bufferView":15,"componentType":5126,"count":44,"max":[2.4000000953674316],"min":[0],"type":"SCALAR"},{"bufferView":16,"componentType":5126,"count":44,"max":[0.010466699488461018,0.0002718997420743108,-0.031156102195382118,0.9995144605636597],"min":[-0.00872229877859354,-0.00032627786276862025,-0.031157810240983963,0.9994596838951111],"type":"VEC4"},{"bufferView":17,"componentType":5126,"count":18,"max":[1],"min":[0],"type":"SCALAR"},{"bufferView":18,"componentType":5126,"count":18,"max":[0,0.78125,0],"min":[0,0.75,0],"type":"VEC3"},{"bufferView":19,"componentType":5126,"count":16,"max":[1],"min":[0],"type":"SCALAR"},{"bufferView":20,"componentType":5126,"count":16,"max":[-0.021926384419202805,0.012895630672574043,0.009009248577058315,0.9996358156204224],"min":[-0.030538512393832207,-0.012895630672574043,-0.009009248577058315,0.9995335936546326],"type":"VEC4"},{"bufferView":21,"componentType":5126,"count":16,"max":[1],"min":[0],"type":"SCALAR"},{"bufferView":22,"componentType":5126,"count":16,"max":[-0.03489949554204941,0.008718229830265045,0.00038064614636823535,0.9993908405303955],"min":[-0.04361772537231445,-0.008718229830265045,-0.00038064614636823535,0.9990102052688599],"type":"VEC4"},{"bufferView":23,"componentType":5126,"count":18,"max":[1],"min":[0],"type":"SCALAR"},{"bufferView":24,"componentType":5126,"count":18,"max":[0.258819043636322,0,0,1],"min":[-0.258819043636322,0,0,0.9659258127212524],"type":"VEC4"},{"bufferView":25,"componentType":5126,"count":18,"max":[1],"min":[0],"type":"SCALAR"},{"bufferView":26,"componentType":5126,"count":18,"max":[0.258819043636322,0,0,1],"min":[-0.258819043636322,0,0,0.9659258127212524],"type":"VEC4"},{"bufferView":27,"componentType":5126,"count":16,"max":[1],"min":[0],"type":"SCALAR"},{"bufferView":28,"componentType":5126,"count":16,"max":[0.17493808269500732,0.0054533351212739944,0.031157774850726128,0.9995133280754089],"min":[-0.17493808269500732,-0.0054533351212739944,0.030676867812871933,0.9840863347053528],"type":"VEC4"},{"bufferView":29,"componentType":5126,"count":16,"max":[1],"min":[0],"type":"SCALAR"},{"bufferView":30,"componentType":5126,"count":16,"max":[0.17493808269500732,0.0054533351212739944,-0.030676867812871933,0.9988042712211609],"min":[-0.17493808269500732,-0.0054533351212739944,-0.031135670840740204,0.9840863347053528],"type":"VEC4"},{"bufferView":31,"componentType":5126,"count":11,"max":[0.7200000286102295],"min":[0],"type":"SCALAR"},{"bufferView":32,"componentType":5126,"count":11,"max":[0,0.815625011920929,0],"min":[0,0.75,0],"type":"VEC3"},{"bufferView":33,"componentType":5126,"count":13,"max":[0.7200000286102295],"min":[0],"type":"SCALAR"},{"bufferView":34,"componentType":5126,"count":13,"max":[-0.07028563320636749,0.02458576112985611,0.02357986569404602,0.9969450831413269],"min":[-0.09584575146436691,-0.02458576112985611,-0.02357986569404602,0.9953961968421936],"type":"VEC4"},{"bufferView":35,"componentType":5126,"count":13,"max":[0.7200000286102295],"min":[0],"type":"SCALAR"},{"bufferView":36,"componentType":5126,"count":13,"max":[-0.11320321261882782,0.008641608990728855,0.0012144990032538772,0.9935718774795532],"min":[-0.13916780054569244,-0.008641608990728855,-0.0012144990032538772,0.9902303814888],"type":"VEC4"},{"bufferView":37,"componentType":5126,"count":11,"max":[0.7200000286102295],"min":[0],"type":"SCALAR"},{"bufferView":38,"componentType":5126,"count":11,"max":[0.45399048924446106,0,0,0.9993908405303955],"min":[-0.48480960726737976,0,0,0.874619722366333],"type":"VEC4"},{"bufferView":39,"componentType":5126,"count":11,"max":[0.7200000286102295],"min":[0],"type":"SCALAR"},{"bufferView":40,"componentType":5126,"count":11,"max":[0.45399048924446106,0,0,0.9993908405303955],"min":[-0.48480960726737976,0,0,0.874619722366333],"type":"VEC4"},{"bufferView":41,"componentType":5126,"count":13,"max":[0.7200000286102295],"min":[0],"type":"SCALAR"},{"bufferView":42,"componentType":5126,"count":13,"max":[0.3385734558105469,0.010554332286119461,0.031154433265328407,0.9994061589241028],"min":[-0.3679458200931549,-0.011469954624772072,0.02896980009973049,0.9293250441551208],"type":"VEC4"},{"bufferView":43,"componentType":5126,"count":13,"max":[0.7200000286102295],"min":[0],"type":"SCALAR"},{"bufferView":44,"componentType":5126,"count":13,"max":[0.3385734558105469,0.011469954624772072,-0.02896980009973049,0.9944679737091064],"min":[-0.3679458200931549,-0.010554332286119461,-0.031000494956970215,0.9293250441551208],"type":"VEC4"},{"bufferView":45,"componentType":5126,"count":5,"max":[1.25],"min":[0],"type":"SCALAR"},{"bufferView":46,"componentType":5126,"count":5,"max":[0,0.75,0],"min":[0,0.75,0],"type":"VEC3"},{"bufferView":47,"componentType":5126,"count":22,"max":[1.25],"min":[0],"type":"SCALAR"},{"bufferView":48,"componentType":5126,"count":22,"max":[-0.17363330721855164,0.012890735641121864,0.002272984478622675,0.9847233891487122],"min":[-0.2079116851091385,-0.012890735641121864,-0.002272984478622675,0.9781476259231567],"type":"VEC4"},{"bufferView":49,"componentType":5126,"count":22,"max":[1.25],"min":[0],"type":"SCALAR"},{"bufferView":50,"componentType":5126,"count":22,"max":[-0.08715574443340302,0,0,0.9961947202682495],"min":[-0.10452846437692642,0,0,0.9945219159126282],"type":"VEC4"},{"bufferView":51,"componentType":5126,"count":22,"max":[1.25],"min":[0],"type":"SCALAR"},{"bufferView":52,"componentType":5126,"count":22,"max":[0.22495105862617493,0,0,0.9998710751533508],"min":[-0.1908089965581894,0,0,0.9743700623512268],"type":"VEC4"},{"bufferView":53,"componentType":5126,"count":22,"max":[1.25],"min":[0],"type":"SCALAR"},{"bufferView":54,"componentType":5126,"count":22,"max":[0.22495105862617493,0,0,0.9998665452003479],"min":[-0.1908089965581894,0,0,0.9743700623512268],"type":"VEC4"},{"bufferView":55,"componentType":5126,"count":22,"max":[1.25],"min":[0],"type":"SCALAR"},{"bufferView":56,"componentType":5126,"count":22,"max":[0.08780854195356369,0.002737250877544284,0.031151888892054558,0.9993245601654053],"min":[-0.15015265345573425,-0.004680700600147247,0.03080422431230545,0.9881717562675476],"type":"VEC4"},{"bufferView":57,"componentType":5126,"count":22,"max":[1.25],"min":[0],"type":"SCALAR"},{"bufferView":58,"componentType":5126,"count":22,"max":[0.08780854195356369,0.004680700600147247,-0.03080422431230545,0.9995067715644836],"min":[-0.15015265345573425,-0.002737250877544284,-0.031157569959759712,0.9881717562675476],"type":"VEC4"},{"bufferView":59,"componentType":5126,"count":13,"max":[0.8500000238418579],"min":[0],"type":"SCALAR"},{"bufferView":60,"componentType":5126,"count":13,"max":[0,1.0125000476837158,0],"min":[0,0.6937500238418579,0],"type":"VEC3"},{"bufferView":61,"componentType":5126,"count":13,"max":[0.8500000238418579],"min":[0],"type":"SCALAR"},{"bufferView":62,"componentType":5126,"count":13,"max":[0.06975647062063217,0,0,1],"min":[-0.10452846437692642,0,0,0.9945219159126282],"type":"VEC4"},{"bufferView":63,"componentType":5126,"count":14,"max":[0.8500000238418579],"min":[0],"type":"SCALAR"},{"bufferView":64,"componentType":5126,"count":14,"max":[0,0,0,1],"min":[-0.06975647062063217,0,0,0.9975640773773193],"type":"VEC4"},{"bufferView":65,"componentType":5126,"count":13,"max":[0.8500000238418579],"min":[0],"type":"SCALAR"},{"bufferView":66,"componentType":5126,"count":13,"max":[0.2418389916419983,0.006332776974886656,0.04250142350792885,1],"min":[-0.23342661559581757,-0.009812227450311184,0,0.9699632525444031],"type":"VEC4"},{"bufferView":67,"componentType":5126,"count":13,"max":[0.8500000238418579],"min":[0],"type":"SCALAR"},{"bufferView":68,"componentType":5126,"count":13,"max":[0.19062738120555878,0,0,1],"min":[0,-0.008322971872985363,-0.04281797632575035,0.9806928634643555],"type":"VEC4"},{"bufferView":69,"componentType":5126,"count":13,"max":[0.8500000238418579],"min":[0],"type":"SCALAR"},{"bufferView":70,"componentType":5126,"count":13,"max":[0.18113528192043304,0.0056158690713346004,0.033124733716249466,0.9995144605636597],"min":[-0.2788272202014923,-0.009561458602547646,0.030472690239548683,0.9597295522689819],"type":"VEC4"},{"bufferView":71,"componentType":5126,"count":13,"max":[0.8500000238418579],"min":[0],"type":"SCALAR"},{"bufferView":72,"componentType":5126,"count":13,"max":[0.18113528192043304,0.009561458602547646,-0.030472690239548683,0.9995144605636597],"min":[-0.2788272202014923,-0.0056158690713346004,-0.033124733716249466,0.9597295522689819],"type":"VEC4"},{"bufferView":73,"componentType":5126,"count":30,"max":[1.600000023841858],"min":[0],"type":"SCALAR"},{"bufferView":74,"componentType":5126,"count":30,"max":[0,0.7637500166893005,0],"min":[0,0.75,0],"type":"VEC3"},{"bufferView":75,"componentType":5126,"count":30,"max":[1.600000023841858],"min":[0],"type":"SCALAR"},{"bufferView":76,"componentType":5126,"count":30,"max":[-0.04361938685178757,0.034851666539907455,0.0018264985410496593,0.9990482330322266],"min":[-0.05230407416820526,0,0,0.9980211853981018],"type":"VEC4"},{"bufferView":77,"componentType":5126,"count":30,"max":[1.600000023841858],"min":[0],"type":"SCALAR"},{"bufferView":78,"componentType":5126,"count":30,"max":[0.08715574443340302,0.06962636113166809,0,0.9966643452644348],"min":[0.060899827629327774,0,-0.004258530680090189,0.995703399181366],"type":"VEC4"},{"bufferView":79,"componentType":5126,"count":28,"max":[1.600000023841858],"min":[0],"type":"SCALAR"},{"bufferView":80,"componentType":5126,"count":28,"max":[0.8466880917549133,0.3257881700992584,0.15629571676254272,0.542733371257782],"min":[0.7989816069602966,0.21343955397605896,0.14472977817058563,0.392628937959671],"type":"VEC4"},{"bufferView":81,"componentType":5126,"count":28,"max":[1.600000023841858],"min":[0],"type":"SCALAR"},{"bufferView":82,"componentType":5126,"count":28,"max":[0.8466880917549133,-0.21343955397605896,-0.14472977817058563,0.542733371257782],"min":[0.7989816069602966,-0.3257881700992584,-0.15629571676254272,0.392628937959671],"type":"VEC4"},{"bufferView":83,"componentType":5126,"count":30,"max":[1.600000023841858],"min":[0],"type":"SCALAR"},{"bufferView":84,"componentType":5126,"count":30,"max":[-0.03386283293366432,-0.008442952297627926,0.2417745292186737,0.9780967235565186],"min":[-0.1374596506357193,-0.021771470084786415,0.1549120545387268,0.9697046279907227],"type":"VEC4"},{"bufferView":85,"componentType":5126,"count":30,"max":[1.600000023841858],"min":[0],"type":"SCALAR"},{"bufferView":86,"componentType":5126,"count":30,"max":[0.15450850129127502,-0.008442952297627926,-0.15450850129127502,0.9761701226234436],"min":[0.03386283293366432,-0.024471741169691086,-0.2417745292186737,0.9697046279907227],"type":"VEC4"},{"bufferView":87,"componentType":5126,"count":11,"max":[0.6200000047683716],"min":[0],"type":"SCALAR"},{"bufferView":88,"componentType":5126,"count":11,"max":[0,0.7593749761581421,0],"min":[0,0.734375,0],"type":"VEC3"},{"bufferView":89,"componentType":5126,"count":11,"max":[0.6200000047683716],"min":[0],"type":"SCALAR"},{"bufferView":90,"componentType":5126,"count":11,"max":[0.003425311530008912,0.24100130796432495,0.02108488231897354,1],"min":[-0.08456684648990631,-0.1736481785774231,-0.0018997096922248602,0.9666034579277039],"type":"VEC4"},{"bufferView":91,"componentType":5126,"count":11,"max":[0.6200000047683716],"min":[0],"type":"SCALAR"},{"bufferView":92,"componentType":5126,"count":11,"max":[0,0.1736481785774231,0,1],"min":[0,-0.10452846437692642,0,0.9848077297210693],"type":"VEC4"},{"bufferView":93,"componentType":5126,"count":11,"max":[0.6200000047683716],"min":[0],"type":"SCALAR"},{"bufferView":94,"componentType":5126,"count":11,"max":[0.6287330985069275,0.08341789990663528,0.0016410163370892406,0.9995144605636597],"min":[-0.2718808650970459,-0.11147835850715637,-0.06586926430463791,0.7695872783660889],"type":"VEC4"},{"bufferView":95,"componentType":5126,"count":11,"max":[0.6200000047683716],"min":[0],"type":"SCALAR"},{"bufferView":96,"componentType":5126,"count":11,"max":[0,0,0.052804239094257355,0.9995144605636597],"min":[-0.1501205712556839,-0.006120014004409313,0.031157810240983963,0.9879606366157532],"type":"VEC4"},{"bufferView":97,"componentType":5126,"count":11,"max":[0.6200000047683716],"min":[0],"type":"SCALAR"},{"bufferView":98,"componentType":5126,"count":11,"max":[0.08715574443340302,0,0,1],"min":[0,0,0,0.9961947202682495],"type":"VEC4"},{"bufferView":99,"componentType":5126,"count":11,"max":[0.6200000047683716],"min":[0],"type":"SCALAR"},{"bufferView":100,"componentType":5126,"count":11,"max":[0,0,0,1],"min":[-0.08715574443340302,0,0,0.9961947202682495],"type":"VEC4"},{"bufferView":101,"componentType":5126,"count":30,"max":[1.600000023841858],"min":[0],"type":"SCALAR"},{"bufferView":102,"componentType":5126,"count":30,"max":[0,0,0,1],"min":[0,-0.017452405765652657,0,0.9998477101325989],"type":"VEC4"},{"bufferView":103,"componentType":5126,"count":30,"max":[1.600000023841858],"min":[0],"type":"SCALAR"},{"bufferView":104,"componentType":5126,"count":30,"max":[0,0,0,1],"min":[0,-0.06975647062063217,0,0.9975640773773193],"type":"VEC4"},{"bufferView":105,"componentType":5126,"count":28,"max":[1.600000023841858],"min":[0],"type":"SCALAR"},{"bufferView":106,"componentType":5126,"count":28,"max":[0.5758978724479675,-0.388448029756546,-0.4022497236728668,0.5963597297668457],"min":[0.5162317752838135,-0.5345736742019653,-0.48133227229118347,0.4648171663284302],"type":"VEC4"},{"bufferView":107,"componentType":5126,"count":2,"max":[1.600000023841858],"min":[0],"type":"SCALAR"},{"bufferView":108,"componentType":5126,"count":2,"max":[0.026141073554754257,0.001369995647110045,0.0523180216550827,0.9982873201370239],"min":[0.026141073554754257,0.001369995647110045,0.0523180216550827,0.9982873201370239],"type":"VEC4"}],"materials":[{"pbrMetallicRoughness":{"metallicFactor":0,"roughnessFactor":1},"alphaMode":"MASK","alphaCutoff":0.05,"doubleSided":true},{"pbrMetallicRoughness":{"metallicFactor":0,"roughnessFactor":1},"alphaMode":"MASK","alphaCutoff":0.05,"doubleSided":true},{"pbrMetallicRoughness":{"metallicFactor":0,"roughnessFactor":1},"alphaMode":"MASK","alphaCutoff":0.05,"doubleSided":true}],"meshes":[{"primitives":[{"mode":4,"attributes":{"POSITION":0,"NORMAL":1,"TEXCOORD_0":2,"JOINTS_0":3,"WEIGHTS_0":4},"indices":5,"material":0},{"mode":4,"attributes":{"POSITION":0,"NORMAL":1,"TEXCOORD_0":2,"JOINTS_0":3,"WEIGHTS_0":4},"indices":6,"material":1},{"mode":4,"attributes":{"POSITION":0,"NORMAL":1,"TEXCOORD_0":2,"JOINTS_0":3,"WEIGHTS_0":4},"indices":7,"material":2}]}],"skins":[{"inverseBindMatrices":8,"joints":[7,6,3,0,1,2,4,5],"skeleton":7}],"animations":[{"name":"idle_loop","samplers":[{"input":9,"output":10,"interpolation":"LINEAR"},{"input":11,"output":12,"interpolation":"LINEAR"},{"input":13,"output":14,"interpolation":"LINEAR"},{"input":15,"output":16,"interpolation":"LINEAR"}],"channels":[{"sampler":0,"target":{"node":3,"path":"rotation"}},{"sampler":1,"target":{"node":0,"path":"rotation"}},{"sampler":2,"target":{"node":1,"path":"rotation"}},{"sampler":3,"target":{"node":2,"path":"rotation"}}]},{"name":"walk_loop","samplers":[{"input":17,"output":18,"interpolation":"LINEAR"},{"input":19,"output":20,"interpolation":"LINEAR"},{"input":21,"output":22,"interpolation":"LINEAR"},{"input":23,"output":24,"interpolation":"LINEAR"},{"input":25,"output":26,"interpolation":"LINEAR"},{"input":27,"output":28,"interpolation":"LINEAR"},{"input":29,"output":30,"interpolation":"LINEAR"}],"channels":[{"sampler":0,"target":{"node":6,"path":"translation"}},{"sampler":1,"target":{"node":3,"path":"rotation"}},{"sampler":2,"target":{"node":0,"path":"rotation"}},{"sampler":3,"target":{"node":4,"path":"rotation"}},{"sampler":4,"target":{"node":5,"path":"rotation"}},{"sampler":5,"target":{"node":1,"path":"rotation"}},{"sampler":6,"target":{"node":2,"path":"rotation"}}]},{"name":"run_loop","samplers":[{"input":31,"output":32,"interpolation":"LINEAR"},{"input":33,"output":34,"interpolation":"LINEAR"},{"input":35,"output":36,"interpolation":"LINEAR"},{"input":37,"output":38,"interpolation":"LINEAR"},{"input":39,"output":40,"interpolation":"LINEAR"},{"input":41,"output":42,"interpolation":"LINEAR"},{"input":43,"output":44,"interpolation":"LINEAR"}],"channels":[{"sampler":0,"target":{"node":6,"path":"translation"}},{"sampler":1,"target":{"node":3,"path":"rotation"}},{"sampler":2,"target":{"node":0,"path":"rotation"}},{"sampler":3,"target":{"node":4,"path":"rotation"}},{"sampler":4,"target":{"node":5,"path":"rotation"}},{"sampler":5,"target":{"node":1,"path":"rotation"}},{"sampler":6,"target":{"node":2,"path":"rotation"}}]},{"name":"crouch_walk_loop","samplers":[{"input":45,"output":46,"interpolation":"LINEAR"},{"input":47,"output":48,"interpolation":"LINEAR"},{"input":49,"output":50,"interpolation":"LINEAR"},{"input":51,"output":52,"interpolation":"LINEAR"},{"input":53,"output":54,"interpolation":"LINEAR"},{"input":55,"output":56,"interpolation":"LINEAR"},{"input":57,"output":58,"interpolation":"LINEAR"}],"channels":[{"sampler":0,"target":{"node":6,"path":"translation"}},{"sampler":1,"target":{"node":3,"path":"rotation"}},{"sampler":2,"target":{"node":0,"path":"rotation"}},{"sampler":3,"target":{"node":4,"path":"rotation"}},{"sampler":4,"target":{"node":5,"path":"rotation"}},{"sampler":5,"target":{"node":1,"path":"rotation"}},{"sampler":6,"target":{"node":2,"path":"rotation"}}]},{"name":"jump_once","samplers":[{"input":59,"output":60,"interpolation":"LINEAR"},{"input":61,"output":62,"interpolation":"LINEAR"},{"input":63,"output":64,"interpolation":"LINEAR"},{"input":65,"output":66,"interpolation":"LINEAR"},{"input":67,"output":68,"interpolation":"LINEAR"},{"input":69,"output":70,"interpolation":"LINEAR"},{"input":71,"output":72,"interpolation":"LINEAR"}],"channels":[{"sampler":0,"target":{"node":6,"path":"translation"}},{"sampler":1,"target":{"node":3,"path":"rotation"}},{"sampler":2,"target":{"node":0,"path":"rotation"}},{"sampler":3,"target":{"node":4,"path":"rotation"}},{"sampler":4,"target":{"node":5,"path":"rotation"}},{"sampler":5,"target":{"node":1,"path":"rotation"}},{"sampler":6,"target":{"node":2,"path":"rotation"}}]},{"name":"fall_loop","samplers":[{"input":73,"output":74,"interpolation":"LINEAR"},{"input":75,"output":76,"interpolation":"LINEAR"},{"input":77,"output":78,"interpolation":"LINEAR"},{"input":79,"output":80,"interpolation":"LINEAR"},{"input":81,"output":82,"interpolation":"LINEAR"},{"input":83,"output":84,"interpolation":"LINEAR"},{"input":85,"output":86,"interpolation":"LINEAR"}],"channels":[{"sampler":0,"target":{"node":6,"path":"translation"}},{"sampler":1,"target":{"node":3,"path":"rotation"}},{"sampler":2,"target":{"node":0,"path":"rotation"}},{"sampler":3,"target":{"node":1,"path":"rotation"}},{"sampler":4,"target":{"node":2,"path":"rotation"}},{"sampler":5,"target":{"node":4,"path":"rotation"}},{"sampler":6,"target":{"node":5,"path":"rotation"}}]},{"name":"attack_slash_once","samplers":[{"input":87,"output":88,"interpolation":"LINEAR"},{"input":89,"output":90,"interpolation":"LINEAR"},{"input":91,"output":92,"interpolation":"LINEAR"},{"input":93,"output":94,"interpolation":"LINEAR"},{"input":95,"output":96,"interpolation":"LINEAR"},{"input":97,"output":98,"interpolation":"LINEAR"},{"input":99,"output":100,"interpolation":"LINEAR"}],"channels":[{"sampler":0,"target":{"node":6,"path":"translation"}},{"sampler":1,"target":{"node":3,"path":"rotation"}},{"sampler":2,"target":{"node":0,"path":"rotation"}},{"sampler":3,"target":{"node":2,"path":"rotation"}},{"sampler":4,"target":{"node":1,"path":"rotation"}},{"sampler":5,"target":{"node":4,"path":"rotation"}},{"sampler":6,"target":{"node":5,"path":"rotation"}}]},{"name":"wave_loop","samplers":[{"input":101,"output":102,"interpolation":"LINEAR"},{"input":103,"output":104,"interpolation":"LINEAR"},{"input":105,"output":106,"interpolation":"LINEAR"},{"input":107,"output":108,"interpolation":"LINEAR"}],"channels":[{"sampler":0,"target":{"node":3,"path":"rotation"}},{"sampler":1,"target":{"node":0,"path":"rotation"}},{"sampler":2,"target":{"node":2,"path":"rotation"}},{"sampler":3,"target":{"node":1,"path":"rotation"}}]}]}